<svg id="Layer_1" data-name="Layer 1" xmlns="http://www.w3.org/2000/svg" viewBox="0 0 881.28 270.72"><defs><style>.cls-1{fill:#96d6d3;}.cls-2,.cls-3{fill:#d63031;}.cls-3{font-size:92.9px;font-family:MonotypeCorsiva, Monotype Corsiva;}</style></defs><path id="saffron" class="cls-1" d="M243.49,217.56c-.67,12.61-1.18,24.18-1.93,35.72-.48,7.53-1.93,8.2-8.71,4.6-20.67-11-40.33-23.48-57.41-39.65-21.63-20.46-37.16-44.65-44.36-73.77-5.27-21.33-4.61-42.74-.11-64.12.83-3.94,1.6-7.91,2.68-11.79,1.18-4.19,3.5-5.46,7.56-3.94,36.87,13.85,67.07,35.61,85,71.89a159.24,159.24,0,0,1,15.71,56.9C242.67,201.78,243,210.19,243.49,217.56Z"/><path id="saffron-2" data-name="saffron" class="cls-1" d="M229.29,263c-4.86.55-9.71,1.39-14.58,1.6-36.24,1.52-71.87-1.43-105.72-15.78-37-15.67-63.64-42.25-81.25-78.05-4.16-8.46-7.53-17.33-11-26.13-2.42-6.21-1.14-8.48,5.12-9.83,16.49-3.56,33.16-5.77,50.05-5.2a179.9,179.9,0,0,1,45,7.32c5.39,1.6,8.5,4.77,10,10.26A162.76,162.76,0,0,0,158.19,208c7.27,8.84,15.19,17.09,24.69,23.51,14.5,9.82,29.28,19.24,44,28.83l2.56,1.69Z"/><path id="saffron-3" data-name="saffron" class="cls-1" d="M246.59,252.15c0-2.44-.19-4.9,0-7.32a306.91,306.91,0,0,0-.37-57.83c-2.3-22.88-10.21-44-22.68-63.27a205.63,205.63,0,0,0-14.23-19.57c-3.94-4.75-4.59-9.33-2.74-15.06,8.58-26.6,23.2-49.41,42.77-69.2,3.45-3.49,6.86-7,10.38-10.46s5.63-3.28,8.85.23a13.07,13.07,0,0,1,1,1.22C285,32.69,297.34,56,303,82.34c6.2,29.2,3.77,57.88-5.82,86-10.2,29.9-26.09,56.6-46,81-1,1.26-2.32,2.33-3.48,3.5Z"/><path id="head" class="cls-2" d="M238.16,264.84c3.82-2.48,7.53-4.6,10.89-7.18a43.59,43.59,0,0,0,7.13-7c18.86-23.11,34.65-48.06,45.23-76.1a172,172,0,0,0,11.12-55.44c0-1.22.14-2.44.23-4,7-4.89,15-7.22,23.45-7.84,13.25-1,25,3.28,35.12,11.56A111.46,111.46,0,0,1,383.67,131c2.05,2.28,3.95,3.49,7.14,3.3,6.65-.39,13.33-.39,20-.43a41.57,41.57,0,0,1,5.59.82c-1.32,1.76-1.92,2.76-2.71,3.58a42.33,42.33,0,0,1-3.53,3.16c-10.79,8.78-18.75,19.73-25.45,31.85-19.61,35.52-48.78,60.72-85.38,77.55-18.53,8.52-38.21,12.67-58.52,14C240,264.89,239.17,264.84,238.16,264.84Z"/><path id="saffron-4" data-name="saffron" class="cls-1" d="M123.68,126.13c-2.85-2.34-5.33-4.55-8-6.51-24.4-18.05-51.31-30.16-81.54-34.34A99.15,99.15,0,0,0,19.48,84,10.37,10.37,0,0,1,9.62,78.3a28.76,28.76,0,0,1-3-7.22c-.91-3.67.62-5.5,4.38-5,5.72.82,11.4,2,17,3.35,35.59,8.74,67,25.59,94.93,49.12C126.57,121.7,126.65,122.44,123.68,126.13Z"/><path id="saffron-5" data-name="saffron" class="cls-1" d="M124.3,110.81c-1.78-1.45-3.28-2.54-4.63-3.79-12.26-11.32-25-22-39.07-31.08a117.24,117.24,0,0,0-40-16.66A14,14,0,0,1,29.83,45.12c.15-3.48,1.81-4.9,5.1-3.75a143.09,143.09,0,0,1,16.63,6.47c26.49,13.07,50.26,30,70.67,51.41,2.21,2.33,4.39,4.68,3.66,8.25A17.63,17.63,0,0,1,124.3,110.81Z"/><path id="saffron-6" data-name="saffron" class="cls-1" d="M126.26,93a43.05,43.05,0,0,1-3.78-3.61c-16.26-20.82-36.57-36.7-59.81-49-3.57-1.89-6.51-4.24-7.39-8.35a16.65,16.65,0,0,1-.39-5.7c.8-5.74,3.54-6.94,8.12-3.48,14.41,10.88,29.51,21,41.89,34.3,7,7.58,13.64,15.56,20.4,23.39,2.43,2.81,3.62,6,2.35,9.71A23.64,23.64,0,0,1,126.26,93Z"/><text class="cls-3" transform="translate(416.4 205.21)">Saffron Food</text></svg>